<svg xmlns="http://www.w3.org/2000/svg" width="24" height="24" viewBox="0 0 24 24" fill="none" stroke="currentColor" stroke-width="2" stroke-linecap="round" stroke-linejoin="round" class="lucide lucide-brain"><path d="M12 5a3 3 0 1 0 0 6 3 3 0 0 0 0-6Z"/><path d="M12 18a3 3 0 1 0 0-6 3 3 0 0 0 0 6Z"/><path d="M16 17c-2.3.8-4.6 1.2-7 1-2.4-.2-4.7-.9-6-2-1.3-1.1-2-2.5-2-4 0-1.5.7-2.9 2-4 1.3-1.1 3.6-1.8 6-2 2.3-.2 4.7.2 7 1 .9.4 1.7.9 2.4 1.6M12 12v6"/><path d="M12 12V6"/><path d="M18 10a3 3 0 1 0 0-6 3 3 0 0 0 0 6Z"/><path d="M6 10a3 3 0 1 0 0-6 3 3 0 0 0 0 6Z"/></svg> 